<svg xmlns="http://www.w3.org/2000/svg" version="1.1" xmlns:xlink="http://www.w3.org/1999/xlink" xmlns:svgjs="http://svgjs.dev/svgjs" width="1000" height="1125" viewBox="0 0 1000 1125"><g transform="matrix(1,0,0,1,0,0)"><svg viewBox="0 0 320 360" data-background-color="#ffffff" preserveAspectRatio="xMidYMid meet" height="1125" width="1000" xmlns="http://www.w3.org/2000/svg" xmlns:xlink="http://www.w3.org/1999/xlink"><g id="tight-bounds" transform="matrix(1,0,0,1,0,0)"><svg viewBox="0 0 320 360" height="360" width="320"><g><svg></svg></g><g><svg viewBox="0 0 320 360" height="360" width="320"><g><path xmlns="http://www.w3.org/2000/svg" d="M165.217 303.356c-1.404-1.755-2.809-0.702-2.808-1.755-8.426 2.106-24.223-3.511-30.894-2.809 1.404-2.106-2.106-1.755-2.106-3.159-1.404 2.106-2.809 0-4.915 0.702-2.106-5.266-10.532-1.404-11.585-8.075-4.915 0-6.67-2.809-11.586-5.617 0.351-0.351 0.702-0.351 1.054-0.702-2.457-0.351-2.457-1.755-4.564-1.755l0.702-1.405c-3.862-0.702-5.266-6.67-10.883-8.776-1.755-0.351-5.617-6.319-7.723-7.724-1.053-0.702-2.809-0.702-0.352-1.053-0.351-0.351-0.351-1.053 0-1.404-2.457-0.702-2.809-2.809-5.968-3.862-0.351-1.053 0.702-1.755 0-2.457-0.702-0.351-1.755 0.351-2.457 0-0.351 6.319 6.67 7.021 8.777 12.287-0.702-0.702-1.755-2.809-2.458-1.404-0.351 1.053 2.809 4.915 2.809 2.808-1.053 0.702-1.404-1.053-0.703-1.404 1.053 1.755 3.16 1.404 3.16 2.809-1.053 1.053-2.457-1.053-2.106 0.702 3.16 1.755 2.809 3.511 4.563 5.968-1.404-1.755-1.755 1.404-3.159 0-0.351-5.266-6.319-4.213-6.319-9.479-0.702-1.755-1.404-0.351-2.458-1.053 1.404-1.404-4.213-6.319-4.213-4.564-1.755-2.106-0.702-2.809-1.053-4.213-1.404-0.351-0.351 1.404-1.404 0.351 1.404-2.457-1.755-5.617-3.862-8.074l1.405-0.702c-2.457-1.404-2.809-4.213-4.564-7.373-2.106 3.16 4.213 10.181 3.159 11.585 0 0.351 2.457 3.16 3.16 4.564 2.809 4.915 4.915 10.883 8.777 13.692-0.702-0.351-0.351-2.457 0.702-1.404 0 1.053-0.702 2.106-0.702 3.159 2.106 2.106 3.862 3.862 5.968 5.968-4.564-2.809-9.128-5.617-12.288-9.83 1.755-0.351 3.511 2.809 4.915 2.458-3.511-2.809-2.457-3.862-3.861-7.372-1.404-1.053 0.351 1.404-1.054 1.755-4.564-4.213-8.075-6.67-10.181-10.532 0.351-0.351 0.702-0.702 0.703-1.404-0.351-0.351-0.351-0.351-0.703-0.702 2.106 2.106 2.809 3.862 5.266 4.212-1.053-1.053 0-1.404-1.404-2.457-0.702-1.404-1.755 0.702-2.457-0.351 0.702-1.053 0-2.457 0-3.511-0.702 0-1.404 0-1.756-1.053-0.702-0.351-1.053 0-1.404 0.702-0.351-0.351-0.351-1.053-0.702-1.404v-0.351c-0.351-0.351-0.702-1.053-1.053-1.405-2.809-7.372-4.564-17.202-8.426-23.521 1.053-4.213-0.702-12.638-1.755-14.745 1.053-1.755 0.351-9.83-0.351-11.234-1.755 0.702 0.351 4.564-1.404 5.617-1.755-7.723 1.053-16.5 0.351-23.521 0.702 0 1.404 0 1.404-0.351-1.053-1.053 0.702-3.16 0.351-5.617 1.404-3.16-3.16 4.564-3.16 7.723-0.351 0.702-1.755 0-1.404 1.756 0 2.457 0.702 7.372-0.702 10.883-0.702 0-0.702-0.702-1.404-0.351-0.351 1.755-0.702 3.862-1.053 5.617-0.351-0.702-0.702-1.755-0.703-2.107-1.755-8.777 0-18.958-0.702-26.33 1.404 0 1.404-2.106 2.458-2.808-0.351 2.809-1.053 6.319 0.702 7.021 1.404-13.692 4.213-28.787 10.532-43.532 4.564-10.883 11.234-21.766 19.308-30.543 0.702 1.053-0.351 3.511 0 4.564 7.021-7.372 11.585-16.149 19.309-21.064 0.351 1.755-3.16 3.16-3.16 4.564 3.16-3.16 4.213-2.106 7.724-3.159 1.053-1.404-1.404 0-1.756-1.405 2.106-1.404 3.511-3.16 4.915-4.212 0 0.351-0.351 0.351-0.351 0.702 3.862-1.053 4.213-3.16 7.022-3.862-0.351-0.351-1.053-0.702-2.107-0.351 0.702-0.351 1.755-1.053 2.809-1.404-0.351 0-0.351 0.351-0.702 0.351 2.106-1.053 0.351 0.351 0.351 1.053 0.351 0 0.702-0.351 0.702-0.351-2.106 1.404-3.511 2.106-4.213 4.564 1.053-0.702 1.404 0 2.809-1.054 1.404-0.702-0.351-1.755 0.702-2.457 1.053 0.702 2.457 0.351 3.51 0.351 0-0.702 0.351-1.404 1.054-1.755 0.351-0.702 0-1.053-0.352-1.053 0.351-0.351 0.702-0.351 1.405-0.703 0 0 0.351 0 0.351 0.351 5.968-2.809 12.638-5.266 18.957-7.372 3.862-0.351 8.777-0.351 10.883-2.808-0.702 0-1.404 0.351-1.755 0 0.351 0 1.053-0.351 1.404-0.351 0.702 0.702 1.755 0 0.702 1.404 0.351 0 0.351 0 0.703-0.351 0 0.351 0 0.351 0.351 0.702 0.351 0 0.702-0.351 1.053-1.053 0.351 0 0.702 0 1.053-0.351l-0.351 0.351c2.809-0.702 5.266-0.351 9.128-1.054 0-0.351 0-0.702 0-1.053 0.702 0 1.053-0.351 1.755-0.351v0.351c1.404-0.702 2.809 0.702 2.808 0 0.351 0 0.351 0 0.703 0 0 0.702-0.351 1.053-0.351 1.405 1.755 0 2.809 0 3.51-1.054-0.351-0.351-0.702-0.351-1.053-0.351 0.702 0 1.404-0.351 2.106-0.702 1.053 0.351 1.404 0.702 1.405 2.107 1.755-3.16 7.372 0.702 9.829 0 1.053 0 0.702-1.404 1.405-2.107 0.351 0 0.702 0 1.053 0 1.755 1.404 4.213 2.809 7.372 3.16-2.809-0.702 0.351-1.053 0.702-1.405-0.702 0-0.702-0.351-0.702-0.702 1.053 0 2.106 0.351 3.16 0.351 0 0.702 0.351 1.053 1.053 1.054 0.702 0 0.702-0.351 0.702-1.054 1.053 0 1.755 0 2.809 0.351-0.351 1.404 1.755 1.755 2.457 2.809-2.809-0.702-5.968-1.755-7.021 0 11.234 2.457 23.521 5.968 35.457 11.936 0 0 0 0 0 0.351h0.352c2.106 1.053 4.213 2.106 6.319 3.16 1.404 0.702 2.457 1.404 3.861 2.457 0 0.351 0 0.702 0.703 0.702h0.351c1.404 1.053 2.809 1.755 4.212 2.809 1.404 2.106 2.809 4.915 5.266 4.213 5.266 8.075 10.883 11.234 15.447 19.659 0.351-1.404 1.404 3.16 3.16 3.511-2.809-0.351 1.755 1.755-1.053 1.404 2.457 2.457 3.16 3.511 3.51 6.319-0.702-1.404-1.053-1.755-1.404-0.351-0.351 2.106 2.457-0.351 3.511 1.756-2.106 0-1.404 1.404-1.054 3.159 1.053-1.053 0.702-2.106 1.756-1.755 1.404 1.404-0.702 1.755-0.351 2.809 1.053-1.404 1.404-0.702 2.808 0-1.755 0.351 1.053 2.809-1.053 1.755 1.404 1.755 1.755 2.809 1.053 4.564-1.404-2.106-0.351-3.511-2.457-3.16 4.213 3.511 2.106 11.585 7.021 12.287-3.16 0.702 0 2.106-1.755 2.458 2.106 0.702 1.053 3.511 3.51 4.213-0.351 1.755-1.053 2.809-1.404 4.563 1.053 1.404 1.404 4.213 3.16 4.564-1.053 1.053-0.351 3.862-1.404 4.915 1.404-0.702 2.106-0.702 3.159 0.702-1.755 1.404-0.351 2.809-1.404 3.16 3.16 8.075-0.702 24.575 1.053 30.894-2.106-1.053-1.404 2.457-2.808 2.457 2.457 1.053 0.351 2.809 1.404 4.564-4.915 2.809 0 10.532-6.67 12.287 0.702 4.915-2.106 7.021-4.213 12.288-0.351-0.351-0.351-0.702-0.702-1.054-0.351 2.457-1.755 2.809-1.054 4.915l-1.404-0.702c0 3.862-5.968 5.968-7.372 11.936-0.351 1.755-5.617 6.319-7.022 8.777-0.702 1.053-0.351 2.809-1.053 0.351-0.351 0.351-1.053 0.351-1.404 0.351-0.351 2.457-2.457 3.16-3.16 6.319-0.702 0.351-1.755-0.702-2.457 0.351 0 0.702 0.702 1.755 0.351 2.458 6.319-0.351 6.319-7.723 11.234-10.181-0.351 1.053-2.457 2.106-1.053 2.808 1.053 0 4.213-3.511 2.457-3.159 1.053 0.702-1.053 1.404-1.404 1.053 1.755-1.404 1.053-3.16 2.458-3.511 1.053 0.702-1.053 2.457 1.053 2.107 1.404-3.16 3.16-3.511 5.266-5.266-1.404 1.404 1.755 1.755 0.351 3.159-5.266 1.053-3.511 7.021-8.777 7.724-1.404 1.053-0.351 1.404-0.702 2.457-1.755-1.053-5.617 4.915-4.213 4.564-1.755 1.755-2.809 1.053-4.212 1.404-0.351 1.404 1.404 0.351 0.702 1.405-2.457-1.053-5.617 2.457-7.724 4.915l-1.053-1.054c-1.053 2.809-3.862 3.16-7.021 5.266 3.511 1.755 9.479-5.617 11.234-4.564 0.351 0 3.16-2.809 4.213-3.861 4.564-3.511 10.181-6.319 12.287-10.181-0.351 0.702-2.457 0.702-1.404-0.351 1.053-0.351 2.106 0.351 3.159 0.351 5.617-7.723 12.638-14.043 17.905-23.17 0.351-0.351 0.702-1.053 1.053-1.756-0.702 2.106-1.755 3.862-2.458 5.968-5.617 3.862-7.723 15.096-14.393 16.851 0.351 3.862-3.16 4.915-4.915 9.479-1.053 1.404-1.755-1.053-2.809 0.702 1.053 4.915-8.777 4.564-8.425 9.128-0.702 0.351-1.755 0.702-2.458 1.404h-0.351c-0.351 0.351-0.351 0.351-0.702 0.702-1.755 1.053-3.16 2.106-4.564 3.16-4.915 2.809-11.585 4.915-16.851 7.723v-0.351c-1.404 0.702-3.16 0.351-2.809 1.756-1.053 0.702-2.106 1.404-3.159 2.106-0.351 0-0.351 0-0.702 0 0 0-0.351-0.351-0.702-0.351-0.702 0-0.702 0-1.054 0.351-4.564 0.351-10.532 2.457-12.287 3.862-1.755-1.053-9.83 0.702-11.234 1.404 0.702 1.053 2.809 0 4.564 0-1.053 0.351-2.106 0.702-2.458 1.404-0.351 0-0.351 0-0.702 0-0.351-1.053-1.404 0-1.755-0.351h0.351c-0.351-1.404-1.404-2.106-3.16-1.755 0 0.702 0 1.053-0.351 1.755 0.702 0 2.809-1.053 2.809 0-0.351 0-0.351 0.351 0 0.351-0.702 0.702-1.755 0.702-2.458 1.054-1.404 0-3.16 0-4.563 0-0.351-0.351-0.702-0.351-1.405-0.703-0.351 0.351-1.053 0.351-1.404 0.703-2.106 0-4.564 0.351-6.319 0.702 0-0.702 0-1.404-0.702-1.405-1.053 1.404-3.16-0.351-5.617 0.352-2.457-0.702 1.404 1.053 4.915 1.755-0.351 0.351-0.702 0.702-1.756 1.053M116.068 308.271c-4.915-4.564-15.096-6.67-16.851-10.181-2.809-0.351-7.021-5.617-10.532-6.319 1.755 0 0.351-1.053 0-1.755-0.702 0.702-1.404 1.053-2.106 1.053 0-2.809-2.809-4.564-5.266-6.319 1.755 1.053 3.16 1.755 5.266 2.106 0-0.702 0-1.404 0.702-1.404 2.457 2.457 5.266 4.915 8.425 7.372 4.213 3.862 25.979 13.692 29.841 15.447 0 0-0.702 1.404-0.351 1.404 1.755 1.053 3.16-1.053 3.511 1.404-5.617 0.702-7.723-3.16-12.639-2.808M277.909 226.824v0.351 0c-0.351 0 0-0.351 0-0.351M136.079 64.281c-0.351 0.351-0.702 0.351-0.702 0.351 0-0.351 0.351-0.351 0.702-0.351M129.409 66.036c0 0.351 0 0.351 0 0 0 0.351 0 0.351 0 0 0 0.351 0 0 0 0M106.238 73.408v0c0.351-0.351 0.351-0.351 0.703-0.351-0.351 0-0.702 0.351-0.703 0.351M162.409 61.823c-0.702 0-1.053 0-1.404-0.351 0.351 0 0.702 0 1.053 0h0.351c0 0 0 0 0 0.351M168.728 62.525c-0.351-0.351-1.404-0.702-2.457-0.702 0-0.351 0.351-0.702 0.351-0.702 0.351 0 0.702 0 1.053 0 0 0 0.351 0 0.351 0.351 0 0 0 0 0-0.351 0.351 0 0.351 0 0.702 0 0.351 0.702 0.702 1.053 0 1.404M180.313 63.579c-1.755 0.351-2.809-0.351-4.564-1.405 1.053 0 2.457 0.351 3.511 0.702 0.351 0 0.702 0.351 1.053 0.703M305.292 113.43c-0.702 0.351-1.053 0.351-1.755-1.053-5.617-11.936-15.798-29.138-30.543-43.532-14.394-14.745-33.702-26.681-51.255-33.001 1.053 0.351 2.457 1.053 1.755 1.756-15.447-5.968-30.192-9.479-44.234-10.883-37.915-5.968-77.585 2.106-108.128 21.766 0.351 0.702 0.351 1.053-0.702 1.755-11.234 7.021-27.032 19.309-39.671 35.458-12.638 16.149-22.468 36.511-26.681 54.766 0.351-1.053 0.702-2.809 1.405-2.107-9.128 36.16-6.67 67.053 5.968 93.735 0.702-0.702-1.755-4.213 0.351-3.862 1.404 3.862 3.16 8.075 5.266 11.936 2.457 5.617 5.266 12.989 9.128 14.745-9.83-19.309-16.5-41.426-17.203-61.085 1.404 2.809 1.053 8.777 3.16 11.234 0.702-13.34-2.457-31.245 2.106-43.883-1.053 6.67-1.755 15.798-1.053 24.925 0 6.67 3.16 25.277 5.266 27.032-0.351-0.351-0.351-2.106 0-2.106 1.053 2.106-1.404 3.16 0.351 3.511 0-0.702 0.351-0.702 0.702-0.703 3.511 7.723 8.075 19.66 11.585 25.628 4.213 7.723 9.83 14.745 16.149 21.064 0 0.351 0.351 0.351 0.352 0.702 0.702 1.755 3.16 3.862 3.861 5.266 0.351 0.702-0.351 1.755 0 2.458 5.266 9.83 12.989 19.66 22.468 27.383 5.968 7.021 15.447 14.394 27.032 20.713 11.234 5.968 24.223 10.883 36.16 13.691 8.426 2.106 18.606 2.457 24.926 3.862 8.426 1.755 23.17-0.702 30.542-2.107 44.234-6.67 88.117-36.862 110.235-80.393 22.819-43.883 22.117-97.596 2.457-138.671" fill="#9363bb" fill-rule="nonzero" stroke="none" stroke-width="1" stroke-linecap="butt" stroke-linejoin="miter" stroke-miterlimit="10" stroke-dasharray="" stroke-dashoffset="0" font-family="none" font-weight="none" font-size="none" text-anchor="none" style="mix-blend-mode: normal" data-fill-palette-color="tertiary"></path></g><g transform="matrix(1,0,0,1,97.66405984359062,108)"><svg viewBox="0 0 124.67188031281876 144" height="144" width="124.67188031281876"><g><svg viewBox="0 0 124.67188031281876 144" height="144" width="124.67188031281876"><g><svg viewBox="0 0 124.67188031281876 144" height="144" width="124.67188031281876"><g><svg viewBox="0 0 124.67188031281876 144" height="144" width="124.67188031281876"><g><svg viewBox="0 0 124.67188031281876 144" height="144" width="124.67188031281876"><g><svg viewBox="0 0 124.67188031281876 144" height="144" width="124.67188031281876"><g transform="matrix(1,0,0,1,0,0)"><svg width="124.67188031281876" viewBox="2.4941859245300293 -34.599998474121094 29.955814361572266 34.599998474121094" height="144" data-palette-color="#9363bb"><path d="M18.3-13.65Q17.35-13.3 16.75-13.3L16.75-13.3Q15.65-13.3 14.68-14.05 13.7-14.8 13.05-16.1L13.05-16.1 14.45-17Q16.85-18.6 18-19.45L18-19.45Q21.85-22.45 24.7-25.05L24.7-25.05Q25.25-25.5 26-26.9L26-26.9 26.7-28.1 25.8-28.55Q25.65-28.6 25.13-28.83 24.6-29.05 24.25-29.1L24.25-29.1Q19.9-29.55 14.5-29.9L14.5-29.9Q12.8-30.05 12.3-28.05L12.3-28.05 8.1-8.6Q7.75-7.1 7.55-5.98 7.35-4.85 7.2-4.1L7.2-4.1 6.75-1.85Q6.55-1.05 6.1-0.58 5.65-0.1 4.8-0.05L4.8-0.05 4.15 0Q3.2 0 2.83-0.45 2.45-0.9 2.5-2.05L2.5-2.05 2.6-4.05Q2.9-9.95 3.35-12.9L3.35-12.9Q3.65-15.05 4.23-17.65 4.8-20.25 5-21.05L5-21.05Q5.7-23.95 6-25.45L6-25.45 3.4-25.9Q2.8-27.2 2.8-28.15L2.8-28.15Q2.8-29.75 4.3-31.4L4.3-31.4Q5.35-32.6 6.8-33.35 8.25-34.1 9.8-34.35L9.8-34.35Q12.05-34.6 13.8-34.6L13.8-34.6Q20.65-34.6 27.7-31.7L27.7-31.7Q28.55-31.35 29.4-30.63 30.25-29.9 30.5-29.7L30.5-29.7Q32.45-28.05 32.45-26.25L32.45-26.25Q32.45-25.05 31.7-23.6L31.7-23.6Q31.3-22.75 30.35-21.65L30.35-21.65Q25.7-16.55 18.3-13.65L18.3-13.65Z" opacity="1" transform="matrix(1,0,0,1,0,0)" fill="#9363bb" class="undefined-text-0" data-fill-palette-color="primary" id="text-0"></path></svg></g></svg></g></svg></g></svg></g><g></g></svg></g></svg></g></svg></g></svg></g><defs><mask id="9439084d-9a1d-461b-a0c2-558b28b95e5b"><rect width="640" height="400" fill="white"></rect><rect width="141.88218404907977" height="254.74118208" fill="black" x="249.0589079754601" y="72.62940896" id="transform-me" transform="matrix(1,0,0,1,-122.24000000000001,-76.4)"></rect></mask><mask id="d400ab99-7c2e-47cc-b843-fab622715002"><rect width="640" height="400" fill="white"></rect><rect width="99.30140171725121" height="230.2215408458465" fill="black" x="270.3492991413744" y="84.88922957707675" id="transform-me" transform="matrix(1,0,0,1,-122.24000000000001,-76.4)"></rect></mask><mask id="51bea6e3-afc6-4a6a-88f2-3637fe78afd0"><rect width="640" height="400" fill="white"></rect><rect width="99.51675946878755" height="230.34555206676572" fill="black" x="270.24162026560623" y="84.82722396661714" id="transform-me" transform="matrix(1,0,0,1,-122.24000000000001,-76.4)"></rect></mask><mask id="66314e2e-2d80-4be6-aac6-a274c54e6aeb"><rect width="640" height="400" fill="white"></rect><rect width="99.18074306777997" height="230.15206098580597" fill="black" x="270.40962846611" y="84.92396950709701" id="transform-me" transform="matrix(1,0,0,1,-122.24000000000001,-76.4)"></rect></mask><mask id="219a8022-7aa6-4aea-a089-c7a6c503e0d5"><rect width="640" height="400" fill="white"></rect><rect width="103.24114934779256" height="232.4901980466742" fill="black" x="268.3794253261037" y="83.7549009766629" id="transform-me" transform="matrix(1,0,0,1,-122.24000000000001,-76.4)"></rect></mask><mask id="d2b8e5e6-9bf7-455d-a734-2dd2c60a34ad"><rect width="640" height="400" fill="white"></rect><rect width="99.18074306777997" height="230.15206098580597" fill="black" x="270.40962846611" y="84.92396950709701" id="transform-me" transform="matrix(1,0,0,1,-122.24000000000001,-76.4)"></rect></mask><mask id="1d95e066-0c6e-4cf5-8a4c-70345109146c"><rect width="640" height="400" fill="white"></rect><rect width="99.51675946878755" height="230.34555206676572" fill="black" x="270.24162026560623" y="84.82722396661714" id="transform-me" transform="matrix(1,0,0,1,-122.24000000000001,-76.4)"></rect></mask><mask id="f05865ce-17c5-47a9-bd4e-2e96165ed426"><rect width="640" height="400" fill="white"></rect><rect width="99.30140171725121" height="230.2215408458465" fill="black" x="270.3492991413744" y="84.88922957707675" id="transform-me" transform="matrix(1,0,0,1,-122.24000000000001,-76.4)"></rect></mask><mask id="95c7a5ef-ef20-4722-955c-3a4a8ad0e851"><rect width="640" height="400" fill="white"></rect><rect width="141.88218404907977" height="254.74118208" fill="black" x="249.0589079754601" y="72.62940896" id="transform-me" transform="matrix(1,0,0,1,-122.24000000000001,-76.4)"></rect></mask><mask id="0c632af1-5082-4231-9e80-bc4058aeac2c"><rect width="640" height="400" fill="white"></rect><rect width="141.88218404907977" height="254.74118208" fill="black" x="249.0589079754601" y="72.62940896" id="transform-me" transform="matrix(1,0,0,1,-122.24000000000001,-76.4)"></rect></mask><mask id="8f49cbf9-871e-438c-8615-9f2c2fb202fe"><rect width="640" height="400" fill="white"></rect><rect width="141.88218404907977" height="254.74118208" fill="black" x="249.0589079754601" y="72.62940896" id="transform-me" transform="matrix(1,0,0,1,-122.24000000000001,-76.4)"></rect></mask><mask id="11518588-08c0-4adb-997f-56d4e143058b"><rect width="640" height="400" fill="white"></rect><rect width="141.88218404907977" height="254.74118208" fill="black" x="249.0589079754601" y="72.62940896" id="transform-me" transform="matrix(1,0,0,1,-122.24000000000001,-76.4)"></rect></mask><mask id="e3ec99ba-cf63-4d5f-a362-d72f0e8d2060"><rect width="640" height="400" fill="white"></rect><rect width="141.88218404907977" height="254.74118208" fill="black" x="249.0589079754601" y="72.62940896" id="transform-me" transform="matrix(1,0,0,1,-122.24000000000001,-76.4)"></rect></mask><mask id="86064eee-e915-414d-a692-5bc926c1dc70"><rect width="640" height="400" fill="white"></rect><rect width="141.88218404907977" height="254.74118208" fill="black" x="249.0589079754601" y="72.62940896" id="transform-me" transform="matrix(1,0,0,1,-122.24000000000001,-76.4)"></rect></mask><mask id="e02d4cd7-a17e-46db-ae0a-58d2b77332e4"><rect width="640" height="400" fill="white"></rect><rect width="141.88218404907977" height="254.74118208" fill="black" x="249.0589079754601" y="72.62940896" id="transform-me" transform="matrix(1,0,0,1,-122.24000000000001,-76.4)"></rect></mask><mask id="e178465b-23e1-49b6-b1db-9a04c889ea1e"><rect width="640" height="400" fill="white"></rect><rect width="141.88218404907977" height="254.74118208" fill="black" x="249.0589079754601" y="72.62940896" id="transform-me" transform="matrix(1,0,0,1,-122.24000000000001,-76.4)"></rect></mask><mask id="5e6dd0fc-393a-4a5f-96db-db8430e0ad45"><rect width="640" height="400" fill="white"></rect><rect width="141.88218404907977" height="254.74118208" fill="black" x="249.0589079754601" y="72.62940896" id="transform-me" transform="matrix(1,0,0,1,-122.24000000000001,-76.4)"></rect></mask><mask id="2c5b4249-35c9-4966-b66b-45dc189bc2ce"><rect width="640" height="400" fill="white"></rect><rect width="141.88218404907977" height="254.74118208" fill="black" x="249.0589079754601" y="72.62940896" id="transform-me" transform="matrix(1,0,0,1,-122.24000000000001,-76.4)"></rect></mask><mask id="2d237329-1d8b-42a2-8b81-001be03f55ff"><rect width="640" height="400" fill="white"></rect><rect width="141.88218404907977" height="254.74118208" fill="black" x="249.0589079754601" y="72.62940896" id="transform-me" transform="matrix(1,0,0,1,-122.24000000000001,-76.4)"></rect></mask><mask id="aba768de-568b-402a-9e1c-3693593e5ca7"><rect width="640" height="400" fill="white"></rect><rect width="141.88218404907977" height="254.74118208" fill="black" x="249.0589079754601" y="72.62940896" id="transform-me" transform="matrix(1,0,0,1,-122.24000000000001,-76.4)"></rect></mask><mask id="c4192499-e712-4787-8b2d-da58f380bd2b"><rect width="640" height="400" fill="white"></rect><rect width="141.88218404907977" height="254.74118208" fill="black" x="249.0589079754601" y="72.62940896" id="transform-me" transform="matrix(1,0,0,1,-122.24000000000001,-76.4)"></rect></mask><mask id="bf79794e-dc16-4399-8522-cd88ac045179"><rect width="640" height="400" fill="white"></rect><rect width="141.88218404907977" height="254.74118208" fill="black" x="249.0589079754601" y="72.62940896" id="transform-me" transform="matrix(1,0,0,1,-122.24000000000001,-76.4)"></rect></mask><mask id="191f888d-effd-4ee2-a999-a8fba2096f45"><rect width="640" height="400" fill="white"></rect><rect width="141.88218404907977" height="254.74118208" fill="black" x="249.0589079754601" y="72.62940896" id="transform-me" transform="matrix(1,0,0,1,-122.24000000000001,-76.4)"></rect></mask><mask id="734699ed-84d1-4355-a5b8-51c8cf248917"><rect width="640" height="400" fill="white"></rect><rect width="141.88218404907977" height="254.74118208" fill="black" x="249.0589079754601" y="72.62940896" id="transform-me" transform="matrix(1,0,0,1,-122.24000000000001,-76.4)"></rect></mask><mask id="ec27fd52-7493-4c55-9d60-22691c003a7c"><rect width="640" height="400" fill="white"></rect><rect width="141.88218404907977" height="254.74118208" fill="black" x="249.0589079754601" y="72.62940896" id="transform-me" transform="matrix(1,0,0,1,-122.24000000000001,-76.4)"></rect></mask><mask id="b227b6f7-a16a-446c-88a2-d5d8be9de9ba"><rect width="640" height="400" fill="white"></rect><rect width="141.88218404907977" height="254.74118208" fill="black" x="249.0589079754601" y="72.62940896" id="transform-me" transform="matrix(1,0,0,1,-122.24000000000001,-76.4)"></rect></mask><mask id="614d8fa4-84f4-43b1-a518-bbfa5e536f19"><rect width="640" height="400" fill="white"></rect><rect width="141.88218404907977" height="254.74118208" fill="black" x="249.0589079754601" y="72.62940896" id="transform-me" transform="matrix(1,0,0,1,-122.24000000000001,-76.4)"></rect></mask><mask id="91b03dbd-beaf-4410-80d1-f1f57728dd6b"><rect width="640" height="400" fill="white"></rect><rect width="141.88218404907977" height="254.74118208" fill="black" x="249.0589079754601" y="72.62940896" id="transform-me" transform="matrix(1,0,0,1,-122.24000000000001,-76.4)"></rect></mask><mask id="2098b6f8-0f5a-4ad6-b2c9-0556aac93623"><rect width="640" height="400" fill="white"></rect><rect width="141.88218404907977" height="254.74118208" fill="black" x="249.0589079754601" y="72.62940896" id="transform-me" transform="matrix(1,0,0,1,-122.24000000000001,-76.4)"></rect></mask><mask id="ef4453a5-fdf2-4bd3-b66a-00ff75afc07b"><rect width="640" height="400" fill="white"></rect><rect width="141.88218404907977" height="254.74118208" fill="black" x="249.0589079754601" y="72.62940896" id="transform-me" transform="matrix(1,0,0,1,-122.24000000000001,-76.4)"></rect></mask><mask id="5f62cf94-a2c6-46f2-9bc4-8cecbd932caa"><rect width="640" height="400" fill="white"></rect><rect width="141.88218404907977" height="254.74118208" fill="black" x="249.0589079754601" y="72.62940896" id="transform-me" transform="matrix(1,0,0,1,-122.24000000000001,-76.4)"></rect></mask><mask id="a93522b7-f416-4967-b401-a6d09e3ec089"><rect width="640" height="400" fill="white"></rect><rect width="141.88218404907977" height="254.74118208" fill="black" x="249.0589079754601" y="72.62940896" id="transform-me" transform="matrix(1,0,0,1,-122.24000000000001,-76.4)"></rect></mask><mask id="bd7e6646-0887-4a61-891e-1e67cdf269e6"><rect width="640" height="400" fill="white"></rect><rect width="141.88218404907977" height="254.74118208" fill="black" x="249.0589079754601" y="72.62940896" id="transform-me" transform="matrix(1,0,0,1,-122.24000000000001,-76.4)"></rect></mask><mask id="593c1c05-14fc-45a4-89db-f275b911556f"><rect width="640" height="400" fill="white"></rect><rect width="141.88218404907977" height="254.74118208" fill="black" x="249.0589079754601" y="72.62940896" id="transform-me" transform="matrix(1,0,0,1,-122.24000000000001,-76.4)"></rect></mask><mask id="f5d229d9-699b-49e0-be26-9116ddf2415a"><rect width="640" height="400" fill="white"></rect><rect width="141.88218404907977" height="254.74118208" fill="black" x="249.0589079754601" y="72.62940896" id="transform-me" transform="matrix(1,0,0,1,-122.24000000000001,-76.4)"></rect></mask><mask id="7c01564f-ea76-4504-a85b-6c64a67fc7b9"><rect width="640" height="400" fill="white"></rect><rect width="141.88218404907977" height="254.74118208" fill="black" x="249.0589079754601" y="72.62940896" id="transform-me" transform="matrix(1,0,0,1,-122.24000000000001,-76.4)"></rect></mask><mask id="5c710629-89de-450a-8206-81f524da330c"><rect width="640" height="400" fill="white"></rect><rect width="141.88218404907977" height="254.74118208" fill="black" x="249.0589079754601" y="72.62940896" id="transform-me" transform="matrix(1,0,0,1,-122.24000000000001,-76.4)"></rect></mask><mask id="25d022be-cf2f-40fa-a5f7-3b7794d4118f"><rect width="640" height="400" fill="white"></rect><rect width="141.88218404907977" height="254.74118208" fill="black" x="249.0589079754601" y="72.62940896" id="transform-me" transform="matrix(1,0,0,1,-122.24000000000001,-76.4)"></rect></mask><mask id="9c5598ea-56ec-4f75-a5ce-95422c45beb6"><rect width="640" height="400" fill="white"></rect><rect width="141.88218404907977" height="254.74118208" fill="black" x="249.0589079754601" y="72.62940896" id="transform-me" transform="matrix(1,0,0,1,-122.24000000000001,-76.4)"></rect></mask><mask id="0e05e419-21e2-4bc2-87cb-6180335c3f0f"><rect width="640" height="400" fill="white"></rect><rect width="141.88218404907977" height="254.74118208" fill="black" x="249.0589079754601" y="72.62940896" id="transform-me" transform="matrix(1,0,0,1,-122.24000000000001,-76.4)"></rect></mask><mask id="173f8076-7a02-4189-8484-a23ba586f964"><rect width="640" height="400" fill="white"></rect><rect width="141.88218404907977" height="254.74118208" fill="black" x="249.0589079754601" y="72.62940896" id="transform-me" transform="matrix(1,0,0,1,-122.24000000000001,-76.4)"></rect></mask><mask id="e53a2110-a615-4073-91ed-b5caf4926e20"><rect width="640" height="400" fill="white"></rect><rect width="141.88218404907977" height="254.74118208" fill="black" x="249.0589079754601" y="72.62940896" id="transform-me" transform="matrix(1,0,0,1,-122.24000000000001,-76.4)"></rect></mask><mask id="2cdcc0b9-4cf5-46cb-aec7-a7ce43100544"><rect width="640" height="400" fill="white"></rect><rect width="141.88218404907977" height="254.74118208" fill="black" x="249.0589079754601" y="72.62940896" id="transform-me" transform="matrix(1,0,0,1,-122.24000000000001,-76.4)"></rect></mask><mask id="f2775b2f-7ac0-4120-a359-53e5f5c57cf8"><rect width="640" height="400" fill="white"></rect><rect width="141.88218404907977" height="254.74118208" fill="black" x="249.0589079754601" y="72.62940896" id="transform-me" transform="matrix(1,0,0,1,-122.24000000000001,-76.4)"></rect></mask><mask id="acfdb188-0014-4a3e-8826-96bfd8acbe15"><rect width="640" height="400" fill="white"></rect><rect width="141.88218404907977" height="254.74118208" fill="black" x="249.0589079754601" y="72.62940896" id="transform-me" transform="matrix(1,0,0,1,-122.24000000000001,-76.4)"></rect></mask><mask id="57947da1-84b7-4046-9dc3-b14b3049b2ec"><rect width="640" height="400" fill="white"></rect><rect width="141.88218404907977" height="254.74118208" fill="black" x="249.0589079754601" y="72.62940896" id="transform-me" transform="matrix(1,0,0,1,-122.24000000000001,-76.4)"></rect></mask><mask id="734986f3-01bb-47d1-8eb5-328b98fe3f21"><rect width="640" height="400" fill="white"></rect><rect width="141.88218404907977" height="254.74118208" fill="black" x="249.0589079754601" y="72.62940896" id="transform-me" transform="matrix(1,0,0,1,-122.24000000000001,-76.4)"></rect></mask><mask id="b52f5028-d882-4298-ad9c-b261820c67bd"><rect width="640" height="400" fill="white"></rect><rect width="141.88218404907977" height="254.74118208" fill="black" x="249.0589079754601" y="72.62940896" id="transform-me" transform="matrix(1,0,0,1,-122.24000000000001,-76.4)"></rect></mask><mask id="1ac1d0b3-390c-4c44-a087-e19ea497f856"><rect width="640" height="400" fill="white"></rect><rect width="141.88218404907977" height="254.74118208" fill="black" x="249.0589079754601" y="72.62940896" id="transform-me" transform="matrix(1,0,0,1,-122.24000000000001,-76.4)"></rect></mask><mask id="f143f454-2a0a-4f3e-b935-e72a6bac717f"><rect width="640" height="400" fill="white"></rect><rect width="141.88218404907977" height="254.74118208" fill="black" x="249.0589079754601" y="72.62940896" id="transform-me" transform="matrix(1,0,0,1,-122.24000000000001,-76.4)"></rect></mask><mask id="d9b32a57-9b71-47b9-b705-930f90f7cd6e"><rect width="640" height="400" fill="white"></rect><rect width="141.88218404907977" height="254.74118208" fill="black" x="249.0589079754601" y="72.62940896" id="transform-me" transform="matrix(1,0,0,1,-122.24000000000001,-76.4)"></rect></mask><mask id="e48e4e33-bb79-41f9-9375-2cfc3ae630f8"><rect width="640" height="400" fill="white"></rect><rect width="141.88218404907977" height="254.74118208" fill="black" x="249.0589079754601" y="72.62940896" id="transform-me" transform="matrix(1,0,0,1,-122.24000000000001,-76.4)"></rect></mask><mask id="bf270d01-7d9f-4f27-9ddd-091766c8f80b"><rect width="640" height="400" fill="white"></rect><rect width="141.88218404907977" height="254.74118208" fill="black" x="249.0589079754601" y="72.62940896" id="transform-me" transform="matrix(1,0,0,1,-122.24000000000001,-76.4)"></rect></mask><mask id="99d68e51-dbb0-4433-9521-b7098d4b23c0"><rect width="640" height="400" fill="white"></rect><rect width="141.88218404907977" height="254.74118208" fill="black" x="249.0589079754601" y="72.62940896" id="transform-me" transform="matrix(1,0,0,1,-122.24000000000001,-76.4)"></rect></mask><mask id="005fabec-cf01-4506-bd8f-dd41527072dd"><rect width="640" height="400" fill="white"></rect><rect width="141.88218404907977" height="254.74118208" fill="black" x="249.0589079754601" y="72.62940896" id="transform-me" transform="matrix(1,0,0,1,-122.24000000000001,-76.4)"></rect></mask><mask id="08318055-47d4-48ae-8c37-dbb991d5c5a6"><rect width="640" height="400" fill="white"></rect><rect width="141.88218404907977" height="254.74118208" fill="black" x="249.0589079754601" y="72.62940896" id="transform-me" transform="matrix(1,0,0,1,-122.24000000000001,-76.4)"></rect></mask><mask id="bd7e4565-8dc4-4f27-82a4-48469936d7e9"><rect width="640" height="400" fill="white"></rect><rect width="141.88218404907977" height="254.74118208" fill="black" x="249.0589079754601" y="72.62940896" id="transform-me" transform="matrix(1,0,0,1,-122.24000000000001,-76.4)"></rect></mask><mask id="cabdfcb5-016f-4ad2-905b-3c4d831c583f"><rect width="640" height="400" fill="white"></rect><rect width="141.88218404907977" height="254.74118208" fill="black" x="249.0589079754601" y="72.62940896" id="transform-me" transform="matrix(1,0,0,1,-122.24000000000001,-76.4)"></rect></mask><mask id="bed5608f-f22c-4566-98f4-03d4934e0a31"><rect width="640" height="400" fill="white"></rect><rect width="141.88218404907977" height="254.74118208" fill="black" x="249.0589079754601" y="72.62940896" id="transform-me" transform="matrix(1,0,0,1,-122.24000000000001,-76.4)"></rect></mask><mask id="40e44e5b-17f9-4bcf-8ad8-0885d25bd98f"><rect width="640" height="400" fill="white"></rect><rect width="141.88218404907977" height="254.74118208" fill="black" x="249.0589079754601" y="72.62940896" id="transform-me" transform="matrix(1,0,0,1,-122.24000000000001,-76.4)"></rect></mask><mask id="689424b7-94b1-4028-9e23-925e7e0744cc"><rect width="640" height="400" fill="white"></rect><rect width="164.79544712682764" height="254.74118208" fill="black" x="237.60227643658618" y="72.62940896" id="transform-me" transform="matrix(1,0,0,1,-122.24000000000001,-76.4)"></rect></mask><mask id="16127881-634e-4e47-bcf2-a7dac4609fae"><rect width="640" height="400" fill="white"></rect><rect width="172.23930077120824" height="254.74118208" fill="black" x="233.88034961439587" y="72.62940896" id="transform-me" transform="matrix(1,0,0,1,-122.24000000000001,-76.4)"></rect></mask><mask id="f536db24-67b0-4373-bd92-21049264dffe"><rect width="640" height="400" fill="white"></rect><rect width="164.79544712682764" height="254.74118208" fill="black" x="237.60227643658618" y="72.62940896" id="transform-me" transform="matrix(1,0,0,1,-122.24000000000001,-76.4)"></rect></mask><mask id="01269e9c-3377-4c16-9dee-4aaf7bff70e1"><rect width="640" height="400" fill="white"></rect><rect width="92.62373923166473" height="254.74118208" fill="black" x="273.6881303841676" y="72.62940896" id="transform-me" transform="matrix(1,0,0,1,-122.24000000000001,-76.4)"></rect></mask><mask id="3c825681-91ed-4663-8113-0236a44cc195"><rect width="640" height="400" fill="white"></rect><rect width="172.23930077120824" height="254.74118208" fill="black" x="233.88034961439587" y="72.62940896" id="transform-me" transform="matrix(1,0,0,1,-122.24000000000001,-76.4)"></rect></mask><mask id="71fbc7b9-11ba-46fd-b4f4-ce446ccca096"><rect width="640" height="400" fill="white"></rect><rect width="104.93656908344734" height="254.74118208" fill="black" x="267.5317154582763" y="72.62940896" id="transform-me" transform="matrix(1,0,0,1,-122.24000000000001,-76.4)"></rect></mask><mask id="43567535-1d00-4e41-bd74-98c235d8d3a0"><rect width="640" height="400" fill="white"></rect><rect width="203.18172762645915" height="254.74118208" fill="black" x="218.4091361867704" y="72.62940896" id="transform-me" transform="matrix(1,0,0,1,-122.24000000000001,-76.4)"></rect></mask><mask id="c84385fe-157c-4dff-9158-91f550325fa6"><rect width="640" height="400" fill="white"></rect><rect width="164.79544712682764" height="254.74118208" fill="black" x="237.60227643658618" y="72.62940896" id="transform-me" transform="matrix(1,0,0,1,-122.24000000000001,-76.4)"></rect></mask><mask id="e3466922-11fb-43a4-a99b-3e5cddc6de91"><rect width="640" height="400" fill="white"></rect><rect width="164.79544712682764" height="254.74118208" fill="black" x="237.60227643658618" y="72.62940896" id="transform-me" transform="matrix(1,0,0,1,-122.24000000000001,-76.4)"></rect></mask><mask id="09d323fc-02fe-4108-b4df-868ba7bd8ef8"><rect width="640" height="400" fill="white"></rect><rect width="164.79544712682764" height="254.74118208" fill="black" x="237.60227643658618" y="72.62940896" id="transform-me" transform="matrix(1,0,0,1,-122.24000000000001,-76.4)"></rect></mask><mask id="f3e8f8f8-67dd-4164-bd03-eec5e40a99a5"><rect width="640" height="400" fill="white"></rect><rect width="109.86363141788507" height="169.82745472" fill="black" x="265.0681842910575" y="115.08627264" id="transform-me" transform="matrix(1,0,0,1,-122.24000000000001,-76.4)"></rect></mask><mask id="5baef7b9-342b-4644-940b-70c7e0c6d729"><rect width="640" height="400" fill="white"></rect><rect width="82.39772356341382" height="127.37059104" fill="black" x="278.8011382182931" y="136.31470448" id="transform-me" transform="matrix(1,0,0,1,-122.24000000000001,-76.4)"></rect></mask><mask id="99bc7655-86a0-4842-aeb4-8b7acb59f5a6"><rect width="640" height="400" fill="white"></rect><rect width="235.42206732403946" height="363.9159744" fill="black" x="202.28896633798027" y="18.04201280000001" id="transform-me" transform="matrix(1,0,0,1,-122.24000000000001,-76.4)"></rect></mask><mask id="bf7aeaba-df0e-4de8-a189-1a0b55b74276"><rect width="640" height="400" fill="white"></rect><rect width="219.72726283577015" height="339.65490944" fill="black" x="210.13636858211493" y="30.17254528000001" id="transform-me" transform="matrix(1,0,0,1,-122.24000000000001,-76.4)"></rect></mask><mask id="5380031f-ac1e-4a99-b9e0-f2656bfbd77b"><rect width="640" height="400" fill="white"></rect><rect width="164.79544712682764" height="254.74118208" fill="black" x="237.60227643658618" y="72.62940896" id="transform-me" transform="matrix(1,0,0,1,-122.24000000000001,-76.4)"></rect></mask><mask id="4762cd45-0020-4fe9-bc86-e24ebe4e71ec"><rect width="640" height="400" fill="white"></rect><rect width="164.79544712682764" height="254.74118208" fill="black" x="237.60227643658618" y="72.62940896" id="transform-me" transform="matrix(1,0,0,1,-122.24000000000001,-76.4)"></rect></mask></defs></svg><rect width="320" height="360" fill="none" stroke="none" visibility="hidden"></rect></g></svg></g></svg>